<svg width="512" height="512" viewBox="0 0 512 512" fill="none" xmlns="http://www.w3.org/2000/svg">
  <!-- Background -->
  <rect width="512" height="512" fill="#4c1d95" rx="128"/>
  
  <!-- Wine Glass -->
  <path fill-rule="evenodd" clip-rule="evenodd" d="M256 96C297.856 96 332 130.144 332 172V220C332 254.242 306.899 282.726 274 289.039V368H324C333.941 368 342 376.059 342 386C342 395.941 333.941 404 324 404H188C178.059 404 170 395.941 170 386C170 376.059 178.059 368 188 368H238V289.039C205.101 282.726 180 254.242 180 220V172C180 130.144 214.144 96 256 96ZM256 132C234.461 132 217 149.461 217 171V188H295V171C295 149.461 277.539 132 256 132Z" fill="white"/>
  
  <!-- Wine -->
  <path d="M217 188H295V220C295 241.539 277.539 259 256 259C234.461 259 217 241.539 217 220V188Z" fill="#BE185D"/>
</svg> 